<?xml version="1.0" standalone="no"?>
<!DOCTYPE svg PUBLIC "-//W3C//DTD SVG 20010904//EN"
 "http://www.w3.org/TR/2001/REC-SVG-20010904/DTD/svg10.dtd">
<svg version="1.0" xmlns="http://www.w3.org/2000/svg"
 width="500.000000pt" height="250.000000pt" viewBox="0 0 500.000000 250.000000"
 preserveAspectRatio="xMidYMid meet">
<metadata>
Created by potrace 1.15, written by Peter Selinger 2001-2017
</metadata>
<g transform="translate(0.000000,250.000000) scale(0.100000,-0.100000)"
fill="#000000" stroke="none">
<path d="M1450 1275 l0 -715 100 0 100 0 0 715 0 715 -100 0 -100 0 0 -715z"/>
<path d="M2470 1275 l0 -715 100 0 100 0 0 325 0 325 59 0 c33 0 71 -4 84 -9
14 -5 143 -146 287 -313 144 -167 271 -309 283 -315 24 -14 227 -18 227 -5 0
10 -564 681 -601 715 l-31 29 50 51 c27 29 163 180 301 337 l252 285 -88 3
c-151 5 -122 26 -413 -303 -143 -162 -269 -299 -280 -305 -10 -5 -44 -10 -74
-10 l-56 0 0 310 0 310 -100 0 -100 0 0 -715z"/>
<path d="M1974 767 c-44 -40 -55 -96 -29 -151 21 -44 59 -66 115 -66 103 0
159 90 115 184 -20 42 -63 66 -119 66 -38 0 -52 -6 -82 -33z"/>
<path d="M3769 785 c-30 -16 -59 -70 -59 -109 0 -75 53 -126 130 -126 56 0 94
22 115 66 42 88 -17 184 -112 184 -27 -1 -60 -7 -74 -15z"/>
</g>
</svg>
